<svg height="476pt" viewBox="0 -32 476.55445 476" width="476pt" xmlns="http://www.w3.org/2000/svg"><path d="m36.554688 181.332031c15.109374 0 29.335937 7.113281 38.402343 19.203125l3.632813 4.839844c19.507812 26.019531 46.492187 45.46875 77.351562 55.75 16.300782 5.4375 33.375 8.210938 50.558594 8.207031h24.3125c24.820312.003907 49.304688-5.777343 71.503906-16.878906l1.359375-.679687c19.0625-9.53125 36.027344-22.773438 49.894531-38.953126l26.984376-31.488281-1.285157-1.285156c-45.277343-45.277344-106.683593-70.714844-170.714843-70.714844-64.027344 0-125.4375 25.4375-170.710938 70.714844zm0 0" fill="#a9bfd1"/><path d="m28.09375 58.542969 265.527344-47.65625c20.4375-3.671875 41.386718-3.464844 61.75.605469 32.070312 6.417968 61.523437 22.179687 84.648437 45.304687l28.535157 28.535156-54.207032-21.6875c-17.121094-6.847656-35.054687-11.46875-53.351562-13.757812-24.121094-3.019531-48.578125-1.9375-72.335938 3.199219l-250.007812 54.0625c-6.457032 1.402343-13.203125.121093-18.695313-3.542969l-1.089843-.726563c-8.582032-5.726562-12.640626-16.226562-10.144532-26.234375 2.335938-9.316406 9.914063-16.402343 19.371094-18.101562zm0 0" fill="#bb8254"/><path d="m341.355469 239.398438-.6875-2.730469c6.820312-5.703125 13.179687-11.9375 19.015625-18.648438l26.984375-31.476562-1.664063-23.472657-37.472656 44.542969c-13.167969 15.382813-29.289062 27.96875-47.40625 37.007813l-1.359375.679687c-21.101563 10.507813-44.351563 15.984375-67.921875 16h-24.34375c-47.808594-.007812-92.824219-22.515625-121.511719-60.757812l-3.632812-4.808594c-10.605469-14.066406-27.183594-22.355469-44.800781-22.402344v16c12.585937.03125 24.425781 5.953125 32 16l3.632812 4.800781c.984375 1.320313 2.074219 2.535157 3.097656 3.816407l-2.570312 5.136719c-6.257813 12.617187-17.3125 22.203124-30.6875 26.617187l5.054687 15.199219c17.15625-5.667969 31.378907-17.875 39.585938-33.96875 6.625 6.816406 13.816406 13.054687 21.503906 18.648437-5.054687 18.683594-14.90625 35.722657-28.574219 49.421875l-.683594.671875 11.28125 11.34375.695313-.6875c14.460937-14.476562 25.210937-32.230469 31.335937-51.75 8.308594 4.796875 17.007813 8.875 26.007813 12.191407-.71875 17.933593-5.199219 35.515624-13.152344 51.609374l-1.6875 3.375 14.320313 7.152344 1.679687-3.375c8.351563-16.78125 13.355469-35.027344 14.730469-53.722656 12.867188 3.363281 26.085938 5.175781 39.382812 5.402344l-6.886718 55.125 15.871094 1.984375 7.128906-56.992188h11.199218c4.871094 0 9.734376-.285156 14.589844-.710937l7.203125 57.703125 15.871094-1.984375-7.199219-57.847656c8.84375-1.632813 17.546875-3.964844 26.023438-6.976563 3.957031 19.378906 11.636718 37.804687 22.617187 54.257813l13.308594-8.878907c-10-14.96875-16.957031-31.761719-20.46875-49.417969l-.441406-2.199218c1.191406-.558594 2.398437-1.078125 3.589843-1.664063l1.363282-.679687c6.820312-3.488282 13.394531-7.4375 19.679687-11.816406 5.492188 18.363281 17.21875 34.230468 33.160157 44.871093l8.878906-13.3125c-13.785156-9.191406-23.644532-23.199219-27.640625-39.277343zm0 0" fill="#2a1e1d"/><path d="m428.554688 405.332031h-48v-320l48 24zm0 0" fill="#bb8254"/><path d="m380.554688 160.996094h48v244.335937h-48zm0 0" fill="#2a1e1d"/><path d="m412.554688 160.996094h16v244.335937h-16zm0 0" fill="#fff"/><path d="m380.554688 133.332031h48v32h-48zm0 0" fill="#d1e3ee"/><path d="m475.234375 89.734375c2.089844-3.171875 1.660156-7.371094-1.023437-10.058594l-28.527344-28.535156c-40.199219-40.191406-97.523438-58.171875-153.480469-48.136719l-265.519531 47.664063c-13.015625 2.335937-23.304688 12.34375-26.003906 25.289062-2.695313 12.945313 2.742187 26.230469 13.742187 33.570313l1.101563.734375c7.296874 4.839843 16.238281 6.539062 24.800781 4.710937l250.007812-54.054687c40.453125-8.746094 82.59375-5.207031 121.023438 10.160156l54.207031 21.6875c3.535156 1.421875 7.582031.152344 9.671875-3.03125zm-57.878906-33.511719c-41.402344-16.570312-86.8125-20.382812-130.398438-10.945312l-249.984375 54.054687c-4.34375.9375-8.878906.070313-12.570312-2.398437l-1.09375-.734375c-5.570313-3.714844-8.328125-10.4375-6.964844-16.992188 1.363281-6.554687 6.574219-11.621093 13.164062-12.800781l265.527344-47.648438c50.796875-9.113281 102.839844 7.207032 139.335938 43.695313l.976562.984375zm0 0"/><path d="m380.554688 413.332031h48c4.417968 0 8-3.582031 8-8v-296c.003906-3.03125-1.710938-5.804687-4.421876-7.160156l-48-24c-2.480468-1.238281-5.425781-1.105469-7.785156.355469-2.359375 1.457031-3.792968 4.03125-3.792968 6.804687v93.042969l-25.054688 29.238281c-13.167969 15.382813-29.289062 27.96875-47.40625 37.007813l-1.363281.679687c-21.097657 10.507813-44.347657 15.984375-67.917969 16h-24.3125c-47.808594-.007812-92.824219-22.515625-121.511719-60.757812l-3.632812-4.808594c-10.605469-14.066406-27.183594-22.355469-44.800781-22.402344v16c12.585937.03125 24.425781 5.953125 32 16l3.632812 4.800781c.984375 1.320313 2.074219 2.535157 3.097656 3.816407l-2.570312 5.136719c-6.257813 12.617187-17.3125 22.203124-30.6875 26.617187l5.054687 15.199219c17.15625-5.667969 31.378907-17.875 39.585938-33.96875 6.628906 6.820312 13.828125 13.0625 21.519531 18.65625-5.0625 18.679687-14.917969 35.714844-28.589844 49.414062l-.683594.671875 11.28125 11.34375.695313-.6875c14.460937-14.476562 25.210937-32.230469 31.335937-51.75 8.308594 4.796875 17.007813 8.875 26.007813 12.191407-.71875 17.933593-5.199219 35.515624-13.152344 51.609374l-1.6875 3.375 14.320313 7.152344 1.679687-3.375c8.351563-16.78125 13.355469-35.027344 14.730469-53.722656 12.867188 3.363281 26.085938 5.175781 39.382812 5.402344l-6.886718 55.125 15.871094 1.984375 7.128906-56.992188h11.199218c4.871094 0 9.742188-.285156 14.589844-.710937l7.203125 57.703125 15.871094-1.984375-7.199219-57.847656c8.839844-1.632813 17.539063-3.964844 26.015625-6.976563 3.957031 19.378906 11.636719 37.804687 22.613281 54.257813l13.3125-8.878907c-9.996093-14.96875-16.953124-31.757812-20.46875-49.410156l-.441406-2.207031c1.191406-.558594 2.398438-1.078125 3.589844-1.664063l1.363281-.679687c6.820313-3.488282 13.398438-7.4375 19.6875-11.816406 5.492188 18.363281 17.21875 34.230468 33.160157 44.871093l8.878906-13.3125c-13.796875-9.183593-23.667969-23.191406-27.671875-39.277343l-.6875-2.730469c6.820312-5.703125 13.179687-11.9375 19.015625-18.648438l12.902344-15.085937v202.398437c0 4.417969 3.582031 8 8 8zm8-16v-224h32v224zm0-256h32v16h-32zm32-27.054687v11.054687h-32v-27.054687zm0 0"/></svg>