<svg id="Layer_1_1_" enable-background="new 0 0 64 64" height="512" viewBox="0 0 64 64" width="512" xmlns="http://www.w3.org/2000/svg"><path d="m52.523 31.048c-6.096-1.914-13.15 2.009-18.835 3.837-.556.179-1.12.342-1.688.489-3.926 1.016-8.106 1.262-12.096.593-4.001-.671-8.053-3.184-12.071-1.161-2.948 1.484-4.833 4.591-4.833 7.838 0 10.812 10.115 14.548 19.047 16.26 7.526 1.442 19.484 2.085 28.11-1.511 5.695-2.375 9.938-6.598 10.492-13.66.443-5.666-2.583-10.945-8.126-12.685z" fill="#fff"/><path d="m35.8 11.433 5.796 1.159-3.734-2.241c-3.983-2.39-8.801-2.948-13.225-1.532l-16.216 5.189c-1.026.328-1.621 1.397-1.36 2.443.289 1.155 1.5 1.82 2.629 1.443l17.839-5.946c2.666-.888 5.517-1.066 8.271-.515z" fill="#5c4124"/><path d="m7.833 37.754c4.018-2.023 8.069.49 12.071 1.161 3.991.669 8.171.423 12.096-.593.568-.147 1.132-.31 1.688-.489 5.685-1.828 12.739-5.752 18.835-3.837 4.698 1.475 7.578 5.494 8.08 10.133.013-.134.034-.261.045-.397.444-5.665-2.582-10.944-8.125-12.684-6.096-1.914-13.15 2.009-18.835 3.837-.556.179-1.12.342-1.688.489-3.926 1.016-8.106 1.262-12.096.593-4.001-.671-8.053-3.184-12.071-1.161-2.948 1.484-4.833 4.591-4.833 7.838 0 .591.036 1.157.094 1.706.411-2.777 2.17-5.303 4.739-6.596z" fill="#d1d1d1"/><path d="m38.567 23.574c-2.473-1.897-5.481-2.768-8.524-3.232-3.031-.463-6.162-.591-9.137.153-2.054.514-3.989 1.504-5.576 2.911-.795.705-1.501 1.512-2.089 2.398-1.318 1.985-2.123 5.008-.481 7.11.801 1.026 2.011 1.672 3.24 2.037 1.305.387 2.607.798 3.904 1.016 4.568.766 9.385.333 13.784-1.082 4.519-1.453 8.122-3.275 11.723-6.451-2.826-.764-4.625-3.159-6.844-4.86z" fill="#fbc997"/><path d="m13.841 25.953c.726-.777 1.555-1.456 2.456-2.02 1.797-1.125 3.869-1.782 5.98-1.949 3.057-.242 6.123.402 9.036 1.359 2.925.961 5.747 2.317 7.873 4.597.936 1.003 1.745 2.153 2.639 3.209 1.215-.786 2.401-1.671 3.584-2.714-2.826-.764-4.625-3.159-6.843-4.86-2.473-1.897-5.481-2.768-8.524-3.232-3.031-.463-6.162-.591-9.137.153-2.054.514-3.989 1.504-5.576 2.911-.795.705-1.5 1.512-2.089 2.398-.665 1.002-1.199 2.268-1.354 3.548.352-1.283 1.106-2.493 1.955-3.4z" fill="#fbc188"/><path d="m21.859 59.886c3.649.7 8.006 1.171 12.472 1.171 5.631 0 11.436-.75 16.21-2.742 6.837-2.851 10.573-7.731 11.104-14.505.501-6.389-3.044-11.902-8.822-13.717-2.474-.777-5.062-.665-7.632-.132l.882-.777c.276-.243.396-.619.312-.978-.083-.358-.357-.642-.712-.738-1.758-.476-3.108-1.704-4.538-3.005-.624-.568-1.269-1.155-1.958-1.683-2.285-1.752-5.139-2.841-8.982-3.427-3.696-.565-6.814-.508-9.531.171-4.601 1.151-8.236 4.402-9.724 8.695l1.89.655c1.266-3.653 4.376-6.423 8.319-7.41 2.455-.614 5.315-.659 8.744-.134 3.497.533 6.06 1.498 8.067 3.037.622.477 1.208 1.011 1.829 1.575 1.138 1.036 2.305 2.098 3.733 2.825l-2.807 2.475c-1.158.403-2.296.837-3.401 1.26-1.383.53-2.689 1.03-3.931 1.43-4.386 1.41-8.99 1.772-13.313 1.047-1.089-.183-2.184-.51-3.342-.856-.452-.135-.906-.27-1.362-.398-.56-.288-1.944-1.153-2.633-2.256l-1.696 1.06c.11.177.238.34.366.503-1.321-.031-2.66.195-4.019.879-3.271 1.648-5.384 5.075-5.384 8.733 0 13.437 14.947 16.301 19.859 17.242zm-13.576-24.187c.952-.479 1.918-.665 2.901-.665 1.22 0 2.468.286 3.747.647-.118.764-.445 1.957-1.378 2.424l.895 1.789c1.592-.796 2.19-2.475 2.416-3.645.362.106.726.211 1.094.308-.102.856-.452 2.523-1.664 3.735l1.414 1.414c1.539-1.538 2.044-3.551 2.21-4.73.604.097 1.213.173 1.825.231.089 1.199.053 3.582-1.405 5.041l1.414 1.414c1.917-1.917 2.089-4.736 2.005-6.339.471.012.942.02 1.415.009.351 1.12.828 3.591-.915 5.536l1.489 1.335c2.181-2.432 1.897-5.335 1.47-6.991.344-.031.688-.069 1.033-.112.119 1.946.475 5.81 1.47 7.439l1.707-1.043c-.669-1.094-1.059-4.387-1.193-6.705.252-.048.503-.105.755-.159.087 1.768.638 4.877 3.23 7.085l1.297-1.522c-2.227-1.897-2.523-4.782-2.538-6.062.34-.097.681-.187 1.018-.295.001 0 .002-.001.003-.001.303 1.831 1.322 5.053 4.763 6.481l.767-1.848c-2.791-1.158-3.452-4-3.61-5.301.415-.152.847-.318 1.274-.48.415 1.783 1.747 4.2 4.96 5.262l.628-1.899c-2.835-.937-3.521-3.094-3.688-4.084 4.318-1.639 9.066-3.242 13.133-1.964 4.87 1.53 7.854 6.212 7.428 11.652-.468 5.965-3.792 10.277-9.879 12.816-8.152 3.399-19.569 2.979-27.537 1.452-12.443-2.386-18.237-7.24-18.237-15.28 0-2.909 1.681-5.635 4.283-6.945z"/><path d="m60.293 5.293-9.057 9.057 6.618-10.829-1.707-1.043-8.325 13.622c-1.565-.235-2.832-.106-2.933-.094-.528.059-.917.519-.888 1.049.03.53.468.945.999.945.55 0 .996.244 1.338.529l-1.192 1.95c-.264.432-.163.994.235 1.307.183.143.401.214.619.214.257 0 .514-.099.708-.293l.703-.703c.068.883.027 2.124-.381 3.754l1.94.485c.755-3.022.455-4.995.178-5.977l.54-.54c.456.222.881.496 1.233.853.957.969 1.322 2.415 1.087 4.297l1.984.248c.315-2.52-.239-4.522-1.647-5.95-.361-.366-.761-.668-1.18-.925l10.542-10.542z"/><path d="m38.377 9.494c-4.229-2.536-9.346-3.13-14.044-1.627l-16.216 5.189c-1.523.487-2.413 2.085-2.025 3.638.205.819.747 1.523 1.488 1.93.453.249.959.375 1.467.375.324 0 .648-.051.961-.155l17.839-5.947c2.495-.833 5.178-.999 7.758-.483l5.796 1.159c.477.097.954-.167 1.129-.62.175-.454-.001-.968-.418-1.218zm-11.164 1.505-17.838 5.947c-.278.094-.575.066-.833-.075s-.439-.376-.51-.662c-.133-.533.172-1.081.694-1.248l16.216-5.189c1.507-.482 3.063-.72 4.614-.72 2.165 0 4.317.464 6.306 1.375-2.88-.552-5.867-.355-8.649.572z"/></svg>