<?xml version="1.0" encoding="iso-8859-1"?>
<!-- Generator: Adobe Illustrator 19.0.0, SVG Export Plug-In . SVG Version: 6.00 Build 0)  -->
<svg version="1.1" id="Capa_1" xmlns="http://www.w3.org/2000/svg" xmlns:xlink="http://www.w3.org/1999/xlink" x="0px" y="0px"
	 viewBox="0 0 496 496" style="enable-background:new 0 0 496 496;" xml:space="preserve">
<path style="fill:#EABD8C;" d="M472,304v168c0,8.84-7.16,16-16,16h-80H120H40c-8.84,0-16-7.16-16-16V304H472z"/>
<g>
	<rect x="24" y="304" style="fill:#D3A06C;" width="448" height="24"/>
	<rect x="152" y="456" style="fill:#D3A06C;" width="192" height="32"/>
</g>
<rect x="168" y="424" style="fill:#B27946;" width="160" height="32"/>
<rect x="408" y="304" style="fill:#D3A06C;" width="32" height="184"/>
<rect x="8" y="272" style="fill:#B27946;" width="320" height="32"/>
<path style="fill:#39C3FC;" d="M488,288v136c0,8.84-7.16,16-16,16l0,0c-8.84,0-16-7.16-16-16V320c0-8.84-7.16-16-16-16l0,0
	c-8.84,0-16,7.16-16,16v40c0,8.84-7.16,16-16,16l0,0c-8.84,0-16-7.16-16-16v-24c0-8.84-7.16-16-16-16l0,0c-8.84,0-16,7.16-16,16v48
	c0,8.84-7.16,16-16,16l0,0c-8.84,0-16-7.16-16-16V272h144C480.84,272,488,279.16,488,288z"/>
<path style="fill:#B6C1CE;" d="M56,64c0-30.928,25.072-56,56-56s56,25.072,56,56v8H56V64z"/>
<path style="fill:#ECECEC;" d="M72,139.72C57.368,129.456,48,113.68,48,96c0-30.928,28.656-56,64-56s64,25.072,64,56
	c0,17.68-9.368,33.456-24,43.712L72,139.72z"/>
<g>
	<path style="fill:#F9E0A6;" d="M32,272v-47.864c0-14.288,9.472-26.84,23.208-30.768L88,184v-16h48v16l32.792,9.368
		c13.736,3.928,23.208,16.48,23.208,30.768V272H32z"/>
	<path style="fill:#F9E0A6;" d="M117.472,94.664C138.184,105.976,152,104,152,104v32c0,22.088-17.912,40-40,40l0,0
		c-22.088,0-40-17.912-40-40v-32c0,0,17.736,4.432,40-6.504L117.472,94.664z"/>
</g>
<rect x="32" y="248" style="fill:#EABD8C;" width="160" height="24"/>
<rect x="72" y="224" style="fill:#ECECEC;" width="80" height="48"/>
<rect x="56" y="304" style="fill:#D3A06C;" width="32" height="184"/>
<rect x="72" y="248" style="fill:#B6C1CE;" width="80" height="24"/>
<path d="M336,416H160v32h-16v48h208v-48h-16V416z M176,432h144v16H176V432z M336,480H160v-16h176V480z"/>
<path d="M472,264H328h-8H200v-39.864c0-17.768-11.928-33.584-29.016-38.464L144,177.968v-6.288
	c7.864-7.064,13.376-16.648,15.248-27.496C174.968,132.008,184,114.672,184,96c0-10.52-2.92-20.424-8-29.184V64
	c0-35.288-28.712-64-64-64S48,28.712,48,64v2.816C42.92,75.576,40,85.48,40,96c0,18.672,9.032,36.008,24.752,48.176
	c1.872,10.848,7.384,20.44,15.248,27.496v6.288l-26.984,7.712C35.928,190.552,24,206.368,24,224.136V264H0v48h16v160
	c0,13.232,10.768,24,24,24h88V312h32v88h16v-88h24v88h16v-88h32v88h16v-88h24v88h16v-88h16v72c0,13.232,10.768,24,24,24
	s24-10.768,24-24v-48c0-4.416,3.584-8,8-8s8,3.584,8,8v24c0,13.232,10.768,24,24,24s24-10.768,24-24v-40c0-4.416,3.584-8,8-8
	s8,3.584,8,8v104c0,10.416,6.712,19.216,16,22.528V472c0,4.416-3.584,8-8,8h-24v-80h-16v80h-32v-56h-16v72h88
	c13.232,0,24-10.768,24-24v-25.472c9.288-3.312,16-12.112,16-22.528V288C496,274.768,485.232,264,472,264z M144,136
	c0,17.648-14.352,32-32,32s-32-14.352-32-32v-23.136c8.248,0.248,21.032-1.072,35.24-8.056l2.416-1.072
	C128.64,109.12,137.76,111.12,144,111.8V136z M112,16c19.984,0,37.136,12.28,44.352,29.688C144.112,37.144,128.736,32,112,32
	s-32.112,5.144-44.352,13.688C74.864,28.28,92.016,16,112,16z M73.936,96.24L64,93.752v26.912c-5.168-7.36-8-15.84-8-24.664
	c0-26.472,25.128-48,56-48s56,21.528,56,48c0,8.848-2.848,17.352-8.04,24.728l-0.072-25.704l-8.92,1.04
	c-0.224,0.04-25.096,2.496-57.312-29.72L82.344,77.656c6.392,6.392,12.576,11.608,18.464,15.864
	C85.536,98.832,74.432,96.344,73.936,96.24z M40,224.136c0-10.664,7.16-20.152,17.408-23.08L96,190.032V181.2
	c5.016,1.784,10.384,2.8,16,2.8s10.984-1.024,16-2.8v8.832l38.592,11.024C176.84,203.992,184,213.48,184,224.136V264h-24v-48H64v48
	H40V224.136z M144,264H80v-32h64V264z M32,472V312h32v168H40C35.584,480,32,476.416,32,472z M112,480H80V312h32V480z M16,296v-16
	h304v16H16z M480,424c0,4.416-3.584,8-8,8s-8-3.584-8-8V320c0-13.232-10.768-24-24-24s-24,10.768-24,24v40c0,4.416-3.584,8-8,8
	s-8-3.584-8-8v-24c0-13.232-10.768-24-24-24s-24,10.768-24,24v48c0,4.416-3.584,8-8,8s-8-3.584-8-8V280h136c4.416,0,8,3.584,8,8V424
	z"/>
<path d="M448,224c0-9.896,4.8-14.568,13.264-21.992c8.352-7.304,18.736-16.384,18.736-34.016s-10.384-26.72-18.736-34.024
	C452.8,126.544,448,121.864,448,111.976c0-9.88,4.8-14.552,13.264-21.96C469.608,82.712,480,73.624,480,56v-8h-16v8
	c0,9.88-4.8,14.552-13.264,21.968C442.392,85.264,432,94.352,432,111.976c0,17.632,10.384,26.72,18.736,34.024
	C459.2,153.416,464,158.096,464,167.992c0,9.888-4.8,14.568-13.264,21.984C442.384,197.28,432,206.368,432,224v8h16V224z"/>
<path d="M352,176c0-9.896,4.8-14.568,13.264-21.992c8.352-7.304,18.736-16.384,18.736-34.016s-10.384-26.72-18.736-34.024
	C356.8,78.544,352,73.864,352,63.976c0-9.88,4.8-14.552,13.264-21.96C373.608,34.712,384,25.624,384,8V0h-16v8
	c0,9.88-4.8,14.552-13.264,21.968C346.392,37.264,336,46.352,336,63.976c0,17.632,10.384,26.72,18.736,34.024
	C363.2,105.416,368,110.096,368,119.992c0,9.888-4.8,14.568-13.264,21.984C346.384,149.28,336,158.368,336,176v8h16V176z"/>
<path d="M256,224c0-9.896,4.8-14.568,13.264-21.992c8.352-7.304,18.736-16.384,18.736-34.016s-10.384-26.72-18.736-34.024
	C260.8,126.544,256,121.864,256,111.976c0-9.88,4.8-14.552,13.264-21.96C277.608,82.712,288,73.624,288,56v-8h-16v8
	c0,9.88-4.8,14.552-13.264,21.968C250.392,85.264,240,94.352,240,111.976c0,17.632,10.384,26.72,18.736,34.024
	C267.2,153.416,272,158.096,272,167.992c0,9.888-4.8,14.568-13.264,21.984C250.384,197.28,240,206.368,240,224v8h16V224z"/>
<g>
</g>
<g>
</g>
<g>
</g>
<g>
</g>
<g>
</g>
<g>
</g>
<g>
</g>
<g>
</g>
<g>
</g>
<g>
</g>
<g>
</g>
<g>
</g>
<g>
</g>
<g>
</g>
<g>
</g>
</svg>
